<svg width="32" height="32" viewBox="0 0 32 32" fill="none" xmlns="http://www.w3.org/2000/svg">
<path d="M28.0084 9.13671C27.9818 9.13671 27.9417 9.13671 27.9017 9.13671C20.8474 8.44648 13.8063 8.18601 6.832 8.87625L4.1116 9.13671C3.55152 9.1888 3.05811 8.79811 3.00477 8.25113C2.95143 7.70415 3.35149 7.23532 3.89823 7.18322L6.61863 6.92276C13.713 6.2195 20.9007 6.49299 28.1018 7.18322C28.6485 7.23532 29.0486 7.71718 28.9952 8.25113C28.9552 8.75904 28.5152 9.13671 28.0084 9.13671Z" fill="#333D38"/>
<path d="M11.3393 7.82139C11.2859 7.82139 11.2326 7.82139 11.1659 7.80837C10.6325 7.7172 10.2591 7.2093 10.3525 6.68837L10.6458 4.98232C10.8592 3.73209 11.1526 2 14.2597 2H17.7535C20.874 2 21.1674 3.79721 21.3674 4.99535L21.6608 6.68837C21.7541 7.22232 21.3807 7.73023 20.8473 7.80837C20.3006 7.89953 19.7805 7.53488 19.7005 7.01395L19.4071 5.32093C19.2204 4.1879 19.1804 3.96651 17.7669 3.96651H14.273C12.8595 3.96651 12.8328 4.14883 12.6328 5.3079L12.3261 7.00092C12.2461 7.48278 11.8193 7.82139 11.3393 7.82139Z" fill="#333D38"/>
<path d="M20.2874 30H11.7262C7.07216 30 6.88547 27.4865 6.73878 25.4549L5.87198 12.3404C5.83198 11.8065 6.25871 11.3377 6.80545 11.2986C7.36554 11.2725 7.83227 11.6763 7.87228 12.2102L8.73907 25.3246C8.88576 27.3042 8.9391 28.0465 11.7262 28.0465H20.2874C23.0878 28.0465 23.1412 27.3042 23.2745 25.3246L24.1413 12.2102C24.1813 11.6763 24.6614 11.2725 25.2081 11.2986C25.7549 11.3377 26.1816 11.7935 26.1416 12.3404L25.2748 25.4549C25.1281 27.4865 24.9414 30 20.2874 30Z" fill="#333D38"/>
<path d="M18.2203 22.8372H13.7797C13.2329 22.8372 12.7795 22.3945 12.7795 21.8605C12.7795 21.3265 13.2329 20.8838 13.7797 20.8838H18.2203C18.7671 20.8838 19.2205 21.3265 19.2205 21.8605C19.2205 22.3945 18.7671 22.8372 18.2203 22.8372Z" fill="#333D38"/>
<path d="M19.3404 17.6279H12.6728C12.126 17.6279 11.6726 17.1851 11.6726 16.6512C11.6726 16.1172 12.126 15.6744 12.6728 15.6744H19.3404C19.8871 15.6744 20.3405 16.1172 20.3405 16.6512C20.3405 17.1851 19.8871 17.6279 19.3404 17.6279Z" fill="#333D38"/>
</svg>
